<?xml version="1.0" encoding="UTF-8" standalone="no"?>
<svg xmlns:xlink="http://www.w3.org/1999/xlink"
  height="87"
  version="1.1"
  width="238.48"
  xmlns="http://www.w3.org/2000/svg"
  xml:space="preserve">
  <defs>
    <g id="flower3">
      <g transform="translate(-8.9 -.29)">
        <path style="display:inline;fill:none;stroke:#4c7031;stroke-width:.5;stroke-linecap:round;stroke-linejoin:round;stroke-dasharray:none;stroke-opacity:1"
          d="M29 68.29c-1.39 3.13-2.38 7.17.92 11.5 3.43 4.58 4.37.86 10.45 6.8" />
        <path style="fill:none;stroke:#4c7031;stroke-width:.5;stroke-linecap:round;stroke-linejoin:round;stroke-dasharray:none;stroke-opacity:1"
          d="M10.91 26.33c-.11 6.98 4.12 7.9 6.4 11.84"
          transform="rotate(-40.42 82.8 40.84)" />
        <use transform="rotate(-28.43 33.83 201.4) scale(.9211)"
          x="5"
          y="5"
          xlink:href="#leaf" />
        <use transform="rotate(-126.63 61.07 107.36)"
          x="5"
          y="5"
          xlink:href="#leaf" />
        <use transform="rotate(-100.05 52.57 104.3) scale(.8496)"
          x="5"
          y="5"
          xlink:href="#leaf" />
      </g>
      <use transform="rotate(40.49 86.49 -20.85) scale(1.311)"
        x="5"
        y="5"
        xlink:href="#daisy" />
      <use transform="rotate(7.05 222.8 -395.06) scale(1.134)"
        x="5"
        y="5"
        xlink:href="#daisy" />
    </g>
    <g id="flower2">
      <path style="display:inline;fill:none;stroke:#4c7031;stroke-width:.5;stroke-linecap:round;stroke-linejoin:round;stroke-dasharray:none;stroke-opacity:1"
        d="M29 68.29c-1.39 3.13-2.38 7.17.92 11.5 3.43 4.58 10.78 2.53 15.9 8.36" />
      <use transform="rotate(-33.77 33.88 194.67)"
        x="5"
        y="5"
        xlink:href="#leaf" />
      <use transform="rotate(-74.46 47.07 133.81)"
        x="5"
        y="5"
        xlink:href="#leaf" />
      <use transform="rotate(7.05 139.22 -252.54)"
        x="5"
        y="5"
        xlink:href="#daisy" />
    </g>
    <g id="flower1">
      <path style="display:inline;fill:none;stroke:#4c7031;stroke-width:.5;stroke-linecap:round;stroke-linejoin:round;stroke-dasharray:none;stroke-opacity:1"
        d="M28.08 64.2c1.52 4.26-2.54 6.8-1.7 9.7.42 1.44 3.1 4.8 4.68 6.88 1.84 2.59-.56 11.43.32 14.21" />
      <use transform="rotate(-57.23 46.43 110.7) scale(.7193)"
        x="5"
        y="5"
        xlink:href="#leaf" />
      <use transform="matrix(.1631 -.5977 .5607 .1067 -41.13 138.35)"
        x="5"
        y="5"
        xlink:href="#leaf" />
      <use transform="rotate(9.51 63.22 -221.64) scale(.8636)"
        x="5"
        y="5"
        xlink:href="#leaf" />
      <use transform="matrix(.8028 -.1993 .1993 .8028 -68.82 15.1)"
        x="5"
        y="5"
        xlink:href="#leaf" />
      <use transform="rotate(-8.93 39.22 242.28) scale(.8133)"
        x="5"
        y="5"
        xlink:href="#daisy" />
      <use transform="rotate(11.62 -27.2 -57.97) scale(.8407)"
        x="5"
        y="5"
        xlink:href="#daisy" />
      <use transform="translate(-19.88 21.35) scale(.6583)"
        x="5"
        y="5"
        xlink:href="#daisy" />
    </g>
    <g id="daisy">
      <g fill="#fff">
        <path d="M66.52 72.34c-.86.02-1.49.76-1.47 1.29.01.53.75 1.09 1.59 1.25 1.51.29 2.16-.76 2.06-1.28-.25-1.27-1.32-1.28-2.18-1.26" />
        <path d="M66.98 71.56c.57-.64.46-1.6.06-1.95-.4-.36-1.36-.73-1.93.05-.92 1.24-.99 2.36-.53 2.64 1.09.68 1.83-.1 2.4-.74" />
        <path d="M62.02 71.6c.52.68 1.48.77 1.9.44.43-.32.46-1.24.1-2.02-.65-1.4-1.88-1.31-2.25-.92-.88.93-.27 1.82.25 2.5" />
        <path d="M61.1 71.68c-.85-.09-1.57.56-1.62 1.1-.05.52.6 1.17 1.42 1.43 1.46.48 2.24-.48 2.2-1-.08-1.3-1.15-1.45-2-1.53" />
        <path d="M63.74 76.1c.44-.74.15-1.66-.3-1.93-.47-.27-1.33.05-1.91.68-1.05 1.13-.51 2.23-.01 2.43 1.2.46 1.78-.44 2.22-1.18" />
        <path d="M64.16 76.92c.25.82 1.1 1.18 1.63 1.09 1.18-.21 1.22-.85 1.16-1.71-.11-1.54-1.66-2.04-2.14-1.8-1.15.56-.9 1.6-.65 2.42" />
      </g>
      <g fill="#ecc165">
        <path d="m65.8 74.04.01-.13v-.16l-.04-.2a1.7 1.7 0 0 0-.2-.47 1.98 1.98 0 0 0-.14-.25l-.09-.12-.1-.11-.2-.22-.1-.1-.1-.09-.21-.17-.2-.14-.16-.1-.14-.08-.11-.07.1.09.27.23.17.15.19.18.1.1.1.1.18.21.1.11.08.12.15.22.13.23.1.2.06.19a1.57 1.57 0 0 1 .05.28" />
        <path d="m65.58 74.34-.04-.13a2.9 2.9 0 0 0-.15-.34l-.13-.21a1.5 1.5 0 0 0-.15-.23 8.9 8.9 0 0 0-.17-.24 7.08 7.08 0 0 0-.2-.23l-.2-.22-.22-.2-.2-.18c-.06-.06-.13-.1-.2-.15l-.29-.21-.11-.08.1.1.25.25.18.17.18.2.2.2.2.22.2.22.17.23.17.21.14.2.11.17.09.13.07.12" />
        <path d="m62.58 72.62-.03.13a1.42 1.42 0 0 0 0 .16c0 .06 0 .13.02.2a2.16 2.16 0 0 0 .15.49l.13.26.07.12.09.12c.05.09.12.16.18.24l.1.1.1.1.18.2.18.15.16.12.13.09.1.07-.09-.1-.24-.24-.16-.17-.17-.2-.1-.1-.08-.11a2.43 2.43 0 0 1-.17-.23l-.08-.12-.08-.12-.13-.24-.1-.23a1.19 1.19 0 0 1-.08-.22.77.77 0 0 1-.05-.19.98.98 0 0 1-.02-.15l-.01-.13" />
        <path d="m62.84 72.34.03.14.12.34.1.22.14.25.15.25.18.24c.06.08.11.17.18.24l.2.22.18.2.18.16.28.24.1.09-.08-.1-.24-.28-.16-.18-.17-.21-.18-.23-.18-.24-.17-.23-.16-.24-.14-.23-.13-.2-.1-.19a2.64 2.64 0 0 1-.13-.26" />
        <path d="m65.22 74.76-.06-.14-.18-.34-.14-.22a8.37 8.37 0 0 0-.35-.5l-.2-.24-.22-.24-.22-.22-.2-.21-.2-.17c-.12-.1-.22-.2-.3-.25l-.11-.1.1.12.26.29.17.19.19.21.2.23.21.24.2.25.2.24.34.43.13.17.1.14.08.12" />
        <path d="m64.8 71.78-.13-.01h-.16l-.2.04a2.15 2.15 0 0 0-.47.2l-.25.14-.12.09-.11.1-.22.2-.1.1-.09.1-.17.21-.14.2-.1.16-.08.14-.07.11.09-.1.23-.27.15-.17.18-.19.1-.1.1-.1.21-.18.11-.1.12-.08c.07-.06.15-.1.22-.15l.23-.13.2-.1.19-.06.15-.03.13-.02" />
        <path d="m65.1 72.02-.13.04a3.2 3.2 0 0 0-.34.15l-.21.13a1.5 1.5 0 0 0-.23.15l-.24.17-.22.2-.23.2-.2.22-.18.2c-.06.06-.1.13-.15.2-.09.11-.16.22-.21.3l-.08.1.1-.1.25-.25.17-.18.2-.18.2-.2.22-.2.23-.2.22-.18.21-.16.2-.14.17-.11.13-.09.12-.07" />
        <path d="m63.38 75.02.13.03h.16c.06 0 .13 0 .2-.02a2.27 2.27 0 0 0 .49-.15l.25-.13.13-.07.12-.09a2.65 2.65 0 0 0 .35-.27l.1-.1.18-.2.16-.17.12-.16.09-.13.07-.1-.1.09-.24.24-.18.16c-.05.06-.12.11-.19.17l-.1.1-.11.08-.23.17-.12.08-.12.08-.24.13-.23.1c-.08.04-.15.06-.22.08l-.19.05a.95.95 0 0 1-.15.02l-.13.01" />
        <path d="m63.1 74.76.13-.03a3.06 3.06 0 0 0 .35-.12l.23-.1a8.72 8.72 0 0 0 .49-.29l.24-.18.24-.18.22-.2.2-.18.16-.18.24-.28.09-.1-.1.08-.28.24-.18.16a28.1 28.1 0 0 0-.44.35l-.24.18-.23.17-.24.16-.23.14-.2.13-.19.1-.14.07a2.4 2.4 0 0 1-.12.06" />
        <path d="m65.54 72.38-.14.06-.34.18-.22.14-.24.16-.25.19-.25.2-.24.22-.22.22-.21.2-.17.2c-.1.12-.2.22-.25.3l-.1.11.12-.1.29-.26.19-.17.21-.19.23-.2.24-.21.25-.2.24-.2.43-.34.17-.13.14-.1.12-.08" />
      </g>
      <path d="M64.46 71.32a2.12 2.12 0 1 0-.6 4.2 2.12 2.12 0 0 0 .6-4.2"
        fill="#f2ae1c" />
    </g>
    <path d="M380.3 353.2c-1.35.07-2.31 1.35-2.31 1.35-2.45 1.47-3.48 9.42-3.48 9.42-.8-6.14-3.32-3.5-3.32-3.5-1.66 1.5-.3 9.19-.3 9.19-.68-3.84-1.74-4.85-1.74-4.85-1.88-2.08-3.44.7-3.44.7-2.25 3.61.29 9.92.29 9.92-2.11-5.25-3.28-2.46-3.28-2.46-2.03 2.52-.16 7.84-.16 7.84l1.62 3.96 4.23-.65s5.53-1.15 6.64-4.19c0 0 1.79-2.45-3.81-1.54 0 0 6.71-1.08 8.65-4.87 0 0 1.56-2.78-1.18-3.31 0 0-1.41-.4-5.05 1 0 0 7.28-2.8 7.7-5 0 0 .97-3.51-4.7-1.02 0 0 6.28-5 6.26-7.85 0 0 1.09-2.64-1.16-3.7a2.4 2.4 0 0 0-1.46-.44z"
      fill="#4c7031"
      id="leaf"
      transform="scale(.25)" />
  </defs>
  <g transform="translate(-38.17 -.66)">
    <use transform="rotate(-112.43 28.67 84.1) scale(2.1706)"
      xlink:href="#flower1" />
    <use transform="rotate(-117.69 54.86 96.7) scale(2.3251)"
      xlink:href="#flower2" />
    <use transform="rotate(-92.48 26.29 39.25) scale(1.8933)"
      xlink:href="#flower3" />
    <use transform="rotate(177.45 132.16 89.9) scale(2.0333)"
      xlink:href="#flower2" />
    <use transform="matrix(-2.0674 .76 -.76 -2.0674 302.21 173.16)"
      xlink:href="#flower1" />
    <use transform="rotate(-142.56 90.06 91.74) scale(2.0994)"
      xlink:href="#flower2" />
    <use transform="rotate(-135 60.44 62.61) scale(2.0352)"
      xlink:href="#flower3" />
    <use transform="rotate(119.82 198.3 140.74) scale(2.1906)"
      xlink:href="#flower1" />
    <use transform="matrix(-1.2931 .041 -.041 -1.2931 221.36 110.04)"
      xlink:href="#flower3" />
    <use transform="scale(1.925 -1.925) rotate(5.26 1226.47 652.74)"
      xlink:href="#flower2" />
    <use transform="rotate(19.65 237.2 -21.61) scale(1.0046)"
      xlink:href="#daisy" />
    <use transform="rotate(179.33 124.93 73.45) scale(1.4347)"
      xlink:href="#flower3" />
    <use transform="rotate(19.65 336.58 4.16) scale(1.3921)"
      xlink:href="#daisy" />
  </g>
</svg>
