<?xml version="1.0" encoding="UTF-8" standalone="no"?>
<svg
   width="105mm"
   height="148mm"
   viewBox="0 0 105 148"
   version="1.1"
   xml:space="preserve"
   id="svg23452"
   sodipodi:docname="Invitation Back.svg"
   inkscape:version="1.2.1 (9c6d41e410, 2022-07-14)"
   xmlns:inkscape="http://www.inkscape.org/namespaces/inkscape"
   xmlns:sodipodi="http://sodipodi.sourceforge.net/DTD/sodipodi-0.dtd"
   xmlns:xlink="http://www.w3.org/1999/xlink"
   xmlns="http://www.w3.org/2000/svg"
   xmlns:svg="http://www.w3.org/2000/svg"><sodipodi:namedview
     id="namedview23454"
     pagecolor="#505050"
     bordercolor="#eeeeee"
     borderopacity="1"
     inkscape:showpageshadow="0"
     inkscape:pageopacity="0"
     inkscape:pagecheckerboard="0"
     inkscape:deskcolor="#505050"
     inkscape:document-units="mm"
     showgrid="false"
     inkscape:zoom="1.4142136"
     inkscape:cx="62.932502"
     inkscape:cy="277.18585"
     inkscape:window-width="1920"
     inkscape:window-height="1017"
     inkscape:window-x="-8"
     inkscape:window-y="-8"
     inkscape:window-maximized="1"
     inkscape:current-layer="layer4" /><defs
     id="defs23446"><pattern
       inkscape:collect="always"
       xlink:href="#pattern5728"
       id="pattern5746"
       patternTransform="matrix(0.2350204,0.02010458,-0.02010459,0.23502044,34.107653,50.479666)" /><g
       id="flower3"
       inkscape:label="g4633"><g
         id="g4627"
         transform="translate(-8.908192,-0.28866237)"><path
           style="display:inline;fill:none;stroke:#4c7031;stroke-width:0.5;stroke-linecap:round;stroke-linejoin:round;stroke-dasharray:none;stroke-opacity:1"
           d="m 28.998743,68.287365 c -1.389135,3.130713 -2.381062,7.170617 0.920771,11.499873 3.428768,4.578959 4.374944,0.861663 10.448893,6.793519"
           id="path4617"
           sodipodi:nodetypes="ccc" /><path
           style="fill:none;stroke:#4c7031;stroke-width:0.5;stroke-linecap:round;stroke-linejoin:round;stroke-dasharray:none;stroke-opacity:1"
           d="m 10.914062,26.326041 c -0.118613,6.983842 4.111675,7.898822 6.388747,11.84813"
           id="path4619"
           sodipodi:nodetypes="cc"
           transform="rotate(-40.423139,82.802795,40.836434)" /><use
           x="5"
           y="5"
           xlink:href="#leaf"
           id="use4621"
           transform="matrix(0.81004567,-0.43856692,0.43856692,0.81004567,-91.823831,40.391897)"
           inkscape:transform-center-x="-2.6844251"
           inkscape:transform-center-y="-3.0909696" /><use
           x="5"
           y="5"
           xlink:href="#leaf"
           id="use4623"
           transform="rotate(-126.62821,61.067001,107.36411)"
           inkscape:transform-center-x="3.7158236"
           inkscape:transform-center-y="-2.3404459" /><use
           x="5"
           y="5"
           xlink:href="#leaf"
           id="use4625"
           transform="matrix(-0.1482581,-0.83654799,0.83654799,-0.1482581,-40.946986,174.25082)"
           inkscape:transform-center-x="1.85464"
           inkscape:transform-center-y="-3.2430281" /></g><use
         x="5"
         y="5"
         xlink:href="#daisy"
         id="use4629"
         transform="matrix(0.99700494,0.85129461,-0.85129461,0.99700494,7.1725849,-61.153741)" /><use
         x="5"
         y="5"
         xlink:href="#daisy"
         id="use4631"
         transform="matrix(1.1254816,0.13922519,-0.13922519,1.1254816,-46.818405,-30.343812)" /></g><g
       id="flower2"><g
         id="g3063"><path
           style="display:inline;fill:none;stroke:#4c7031;stroke-width:0.5;stroke-linecap:round;stroke-linejoin:round;stroke-dasharray:none;stroke-opacity:1"
           d="m 28.998743,68.287365 c -1.389135,3.130713 -2.381062,7.170617 0.920771,11.499873 3.428768,4.578959 10.777164,2.535426 15.897696,8.357781"
           id="path2649"
           sodipodi:nodetypes="ccc" /><use
           x="5"
           y="5"
           xlink:href="#leaf"
           id="use23450"
           transform="rotate(-33.768989,33.883192,194.67173)"
           inkscape:transform-center-x="0.35600789"
           inkscape:transform-center-y="-4.4763339" /><use
           x="5"
           y="5"
           xlink:href="#leaf"
           id="use23450-3"
           transform="rotate(-74.460514,47.069852,133.81012)"
           inkscape:transform-center-x="3.2372424"
           inkscape:transform-center-y="-3.1959455" /></g><use
         x="5"
         y="5"
         xlink:href="#daisy"
         id="use23448"
         transform="rotate(7.0518225,139.21725,-252.5429)" /></g><g
       id="flower1"><g
         id="g320"><path
           style="display:inline;fill:none;stroke:#4c7031;stroke-width:0.5;stroke-linecap:round;stroke-linejoin:round;stroke-dasharray:none;stroke-opacity:1"
           d="m 28.081295,64.206837 c 1.520412,4.252403 -2.540301,6.794734 -1.698167,9.684294 0.42166,1.446813 3.094185,4.813534 4.673591,6.8844 1.841268,2.594584 -0.559795,11.439093 0.327404,14.218739"
           id="path314"
           sodipodi:nodetypes="cscc" /><use
           x="5"
           y="5"
           xlink:href="#leaf"
           id="use316"
           transform="matrix(0.38935141,-0.60481584,0.60481584,0.38935141,-71.773895,89.819181)"
           inkscape:transform-center-x="1.4171259"
           inkscape:transform-center-y="-2.8820691" /><use
           x="5"
           y="5"
           xlink:href="#leaf"
           id="use318"
           transform="matrix(0.16310868,-0.59767309,0.56068348,0.10673743,-41.126969,138.3518)"
           inkscape:transform-center-x="1.8654806"
           inkscape:transform-center-y="-1.7209768" /><use
           x="5"
           y="5"
           xlink:href="#leaf"
           id="use488"
           transform="matrix(0.85173791,0.14250757,-0.14250757,0.85173791,-35.706222,-13.476647)"
           inkscape:transform-center-x="-2.4094217"
           inkscape:transform-center-y="-3.0978069" /><use
           x="5"
           y="5"
           xlink:href="#leaf"
           id="use490"
           transform="matrix(0.80278652,-0.19928735,0.19928735,0.80278652,-68.824824,15.095128)"
           inkscape:transform-center-x="-0.81257744"
           inkscape:transform-center-y="-3.5992956" /></g><g
         id="g501"
         inkscape:label="g501"><use
           x="5"
           y="5"
           xlink:href="#daisy"
           id="use322"
           transform="matrix(0.80343165,-0.12634827,0.12634827,0.80343165,-37.163716,9.0320851)" /><use
           x="5"
           y="5"
           xlink:href="#daisy"
           id="use482"
           transform="matrix(0.82348018,0.16916367,-0.16916367,0.82348018,-12.220693,4.2851415)" /><use
           x="5"
           y="5"
           xlink:href="#daisy"
           id="use326"
           transform="matrix(0.65831519,0,0,0.65831519,-19.877578,21.34517)" /></g></g><path
       id="leaf"
       transform="scale(0.25)"
       d="m 380.3,353.2 c -1.353,0.0666 -2.311,1.355 -2.311,1.355 -2.449,1.461 -3.484,9.416 -3.484,9.416 -0.8013,-6.145 -3.312,-3.496 -3.312,-3.496 -1.661,1.501 -0.3047,9.182 -0.3047,9.182 -0.68,-3.84 -1.74,-4.844 -1.74,-4.844 -1.876,-2.079 -3.441,0.6973 -3.441,0.6973 -2.243,3.612 0.293,9.924 0.293,9.924 -2.112,-5.259 -3.283,-2.463 -3.283,-2.463 -2.032,2.515 -0.1582,7.838 -0.1582,7.838 l 1.621,3.963 v 0.002 l 0.002,0.004 0.002,-0.006 4.229,-0.6562 c 0,0 5.529,-1.148 6.633,-4.184 0,0 1.789,-2.448 -3.807,-1.541 0,0 6.712,-1.086 8.648,-4.875 0,0 1.566,-2.775 -1.182,-3.311 0,0 -1.408,-0.3863 -5.045,1.014 0,0 7.276,-2.802 7.705,-5.002 0,0 0.9682,-3.519 -4.705,-1.029 0,0 6.275,-4.995 6.262,-7.85 0,0 1.085,-2.641 -1.158,-3.705 -5e-4,-3.3e-4 -10e-4,3.3e-4 -0.002,0 -0.5174,-0.3416 -1.01,-0.4558 -1.461,-0.4336 z"
       fill="#4c7031" /><g
       id="daisy"
       transform="scale(0.2)"><g
         fill="#ffffff"
         id="g23409">
        <path
   d="m 332.6,361.7 c -4.288,0.12 -7.428,3.781 -7.355,6.443 0.0747,2.664 3.732,5.453 7.944,6.253 7.575,1.436 10.81,-3.792 10.3,-6.408 -1.237,-6.324 -6.6,-6.408 -10.89,-6.288"
   id="path23397" />
        <path
   d="m 334.9,357.8 c 2.831,-3.221 2.284,-8.013 0.284,-9.773 -2,-1.759 -6.789,-3.631 -9.657,0.276 -4.56,6.213 -4.907,11.79 -2.645,13.19 5.472,3.397 9.188,-0.4747 12.02,-3.696"
   id="path23399" />
        <path
   d="m 310.1,358 c 2.595,3.413 7.399,3.836 9.521,2.221 2.121,-1.612 2.261,-6.207 0.456,-10.1 -3.244,-6.992 -9.379,-6.576 -11.21,-4.639 -4.419,4.688 -1.364,9.096 1.231,12.51"
   id="path23401" />
        <path
   d="m 305.5,358.4 c -4.271,-0.4253 -7.848,2.807 -8.111,5.459 -0.2627,2.653 3.009,5.883 7.087,7.211 7.331,2.381 11.2,-2.396 11.03,-5.056 -0.4253,-6.427 -5.737,-7.192 -10,-7.613"
   id="path23403" />
        <path
   d="m 318.7,380.5 c 2.176,-3.693 0.7493,-8.3 -1.545,-9.652 -2.295,-1.356 -6.601,0.256 -9.519,3.4 -5.245,5.648 -2.54,11.17 -0.0507,12.13 6.009,2.315 8.936,-2.183 11.11,-5.877"
   id="path23405" />
        <path
   d="m 320.8,384.6 c 1.225,4.109 5.501,5.903 8.125,5.441 5.947,-1.049 6.144,-4.259 5.829,-8.539 -0.568,-7.684 -8.296,-10.22 -10.69,-9.047 -5.789,2.827 -4.487,8.031 -3.264,12.14"
   id="path23407" />
      </g><path
         d="m 322.3,356.6 c -5.789,-0.8373 -11.16,3.175 -12,8.965 -0.8373,5.787 3.173,11.16 8.963,12 5.788,0.836 11.16,-3.175 12,-8.964 0.836,-5.789 -3.176,-11.16 -8.964,-12"
         fill="#f2ae1c"
         id="path23411" /><g
         fill="#ecc165"
         id="g23433">
        <path
   d="m 329,370.2 c 0,0 0.064,-0.24 0.068,-0.6747 0.005,-0.2147 -0.012,-0.4787 -0.0387,-0.7787 -0.04,-0.2987 -0.084,-0.6427 -0.1893,-1.001 -0.08,-0.368 -0.22,-0.7467 -0.3707,-1.148 -0.1613,-0.3947 -0.3507,-0.8067 -0.5787,-1.213 -0.228,-0.408 -0.464,-0.8293 -0.7613,-1.217 -0.1413,-0.2013 -0.2827,-0.4013 -0.4267,-0.6013 l -0.4787,-0.568 c -0.312,-0.3853 -0.656,-0.74 -1,-1.084 -0.172,-0.1693 -0.3467,-0.3387 -0.516,-0.504 -0.1787,-0.156 -0.356,-0.308 -0.5307,-0.46 -0.3547,-0.2947 -0.6827,-0.5987 -1.029,-0.8387 -0.3427,-0.2453 -0.6653,-0.4787 -0.9653,-0.692 -0.292,-0.2213 -0.5907,-0.3813 -0.8453,-0.5387 -0.256,-0.1493 -0.48,-0.2827 -0.6627,-0.3933 -0.372,-0.2093 -0.5853,-0.328 -0.5853,-0.328 0,0 0.184,0.16 0.5067,0.4427 0.3227,0.2787 0.8,0.6533 1.336,1.14 0.272,0.2427 0.5627,0.5027 0.8733,0.78 0.3213,0.2627 0.6093,0.5933 0.9387,0.8987 0.164,0.1547 0.328,0.312 0.4947,0.472 0.1573,0.1707 0.3147,0.3427 0.4747,0.516 0.3253,0.3413 0.6547,0.688 0.948,1.063 l 0.456,0.5493 c 0.1413,0.1893 0.2813,0.38 0.42,0.568 0.2867,0.3707 0.524,0.7627 0.7707,1.133 0.2387,0.3747 0.44,0.7547 0.632,1.115 0.1787,0.364 0.3467,0.7133 0.4747,1.047 0.1427,0.328 0.228,0.644 0.3253,0.9187 0.0787,0.2813 0.14,0.5293 0.176,0.736 0.076,0.416 0.084,0.6627 0.084,0.6627"
   id="path23413" />
        <path
   d="m 327.9,371.7 c 0,0 -0.056,-0.248 -0.2187,-0.66 -0.1493,-0.4213 -0.408,-0.996 -0.748,-1.68 -0.188,-0.3307 -0.396,-0.688 -0.6147,-1.065 -0.2093,-0.384 -0.472,-0.7573 -0.7533,-1.143 -0.276,-0.3893 -0.5627,-0.788 -0.8627,-1.187 -0.3227,-0.38 -0.6533,-0.7653 -0.992,-1.14 -0.344,-0.376 -0.6613,-0.772 -1.02,-1.117 -0.364,-0.3387 -0.7227,-0.6747 -1.071,-0.9973 -0.352,-0.3187 -0.6907,-0.6253 -1.013,-0.9173 -0.328,-0.2813 -0.6733,-0.5133 -0.972,-0.744 -0.6093,-0.4507 -1.129,-0.8067 -1.487,-1.065 -0.364,-0.2453 -0.572,-0.3853 -0.572,-0.3853 0,0 0.176,0.18 0.4867,0.4933 0.3147,0.3067 0.7573,0.7533 1.304,1.269 0.272,0.2547 0.5667,0.5333 0.88,0.8267 0.296,0.3133 0.6067,0.6413 0.928,0.98 0.3253,0.3333 0.6613,0.68 1.003,1.032 0.3467,0.3453 0.6507,0.74 0.9787,1.109 0.328,0.372 0.6587,0.7467 0.9813,1.115 0.2947,0.388 0.592,0.764 0.8867,1.128 0.2907,0.3613 0.572,0.7147 0.8173,1.064 0.2493,0.3467 0.4893,0.672 0.708,0.9747 0.2093,0.3093 0.392,0.5987 0.5693,0.8467 0.1787,0.2493 0.3133,0.476 0.4253,0.6667 0.232,0.372 0.356,0.596 0.356,0.596"
   id="path23415" />
        <path
   d="m 312.9,363.1 c 0,0 -0.0827,0.2347 -0.1253,0.6667 -0.0227,0.216 -0.0307,0.4773 -0.028,0.7827 0.0133,0.2973 0.0267,0.6467 0.1,1.011 0.048,0.3733 0.1573,0.7627 0.272,1.173 0.1253,0.4107 0.2787,0.8373 0.4693,1.263 0.1947,0.4227 0.3933,0.8653 0.656,1.279 0.1213,0.2107 0.2453,0.4213 0.372,0.6347 l 0.428,0.6067 c 0.276,0.412 0.588,0.7947 0.9013,1.165 0.1573,0.184 0.3147,0.3693 0.4693,0.548 0.1667,0.1693 0.328,0.3387 0.4907,0.5053 0.3267,0.324 0.628,0.6533 0.9533,0.9227 0.32,0.2747 0.6227,0.5347 0.9013,0.7733 0.2707,0.2467 0.5573,0.4307 0.796,0.6067 0.2427,0.176 0.4533,0.3267 0.6253,0.4507 0.3533,0.24 0.5547,0.38 0.5547,0.38 0,0 -0.1693,-0.1773 -0.4667,-0.484 -0.2947,-0.308 -0.74,-0.7213 -1.231,-1.255 -0.2507,-0.264 -0.5187,-0.5507 -0.8013,-0.8507 -0.2987,-0.2893 -0.5587,-0.644 -0.86,-0.976 -0.1507,-0.1693 -0.3,-0.3413 -0.452,-0.5133 -0.1427,-0.184 -0.2827,-0.3707 -0.428,-0.5573 -0.2947,-0.3653 -0.592,-0.7413 -0.852,-1.14 l -0.4067,-0.5853 c -0.1253,-0.2013 -0.2467,-0.4027 -0.3693,-0.6027 -0.256,-0.3933 -0.4573,-0.8053 -0.672,-1.195 -0.204,-0.396 -0.3707,-0.792 -0.5347,-1.164 -0.1427,-0.38 -0.2827,-0.7427 -0.38,-1.085 -0.1133,-0.34 -0.1733,-0.6613 -0.244,-0.9467 -0.0547,-0.2827 -0.096,-0.5387 -0.112,-0.7467 -0.0387,-0.42 -0.0267,-0.6667 -0.0267,-0.6667"
   id="path23417" />
        <path
   d="m 314.2,361.7 c 0,0 0.0347,0.252 0.16,0.6773 0.1107,0.432 0.3253,1.028 0.6013,1.74 0.16,0.3427 0.3347,0.716 0.52,1.112 0.172,0.4013 0.4053,0.796 0.652,1.205 0.24,0.4093 0.492,0.8307 0.7573,1.255 0.288,0.4067 0.5827,0.8213 0.888,1.227 0.3093,0.3987 0.5907,0.8227 0.9213,1.197 0.3333,0.3693 0.6613,0.736 0.98,1.087 0.3227,0.348 0.632,0.684 0.9293,1 0.3053,0.3107 0.6267,0.5707 0.9067,0.824 0.568,0.5013 1.055,0.9027 1.388,1.191 0.3413,0.2773 0.536,0.4373 0.536,0.4373 0,0 -0.1613,-0.1933 -0.44,-0.5373 -0.2907,-0.3333 -0.6947,-0.816 -1.193,-1.376 -0.2493,-0.2773 -0.5173,-0.5813 -0.804,-0.9013 -0.2653,-0.3347 -0.5467,-0.6893 -0.8373,-1.056 -0.2973,-0.3613 -0.6,-0.7333 -0.9133,-1.113 -0.312,-0.3747 -0.5827,-0.7933 -0.88,-1.192 -0.2933,-0.4 -0.588,-0.7987 -0.88,-1.195 -0.26,-0.412 -0.5227,-0.8133 -0.784,-1.199 -0.26,-0.3853 -0.512,-0.7627 -0.7213,-1.132 -0.2213,-0.368 -0.432,-0.712 -0.6253,-1.032 -0.1787,-0.328 -0.336,-0.6293 -0.492,-0.8933 -0.156,-0.2653 -0.2707,-0.5027 -0.364,-0.7 -0.2013,-0.3907 -0.3053,-0.6253 -0.3053,-0.6253"
   id="path23419" />
        <path
   d="m 326.1,373.8 c 0,0 -0.0867,-0.252 -0.2907,-0.68 -0.1987,-0.4293 -0.5067,-1.029 -0.9093,-1.731 -0.2147,-0.344 -0.448,-0.7133 -0.6947,-1.107 -0.2373,-0.4 -0.5293,-0.7907 -0.8293,-1.199 -0.2933,-0.408 -0.604,-0.832 -0.928,-1.249 -0.3413,-0.4093 -0.688,-0.82 -1.033,-1.232 -0.3573,-0.404 -0.692,-0.828 -1.061,-1.208 -0.3707,-0.38 -0.7333,-0.7533 -1.088,-1.112 -0.3573,-0.3573 -0.7013,-0.7013 -1.029,-1.027 -0.3333,-0.32 -0.6747,-0.596 -0.9747,-0.864 -0.6107,-0.528 -1.135,-0.9507 -1.492,-1.256 -0.3667,-0.2907 -0.5747,-0.46 -0.5747,-0.46 0,0 0.1747,0.2053 0.4813,0.5627 0.312,0.3453 0.752,0.856 1.297,1.444 0.2733,0.292 0.5667,0.612 0.88,0.948 0.3013,0.3453 0.62,0.7107 0.948,1.088 0.3307,0.372 0.6747,0.7587 1.02,1.151 0.36,0.3813 0.6853,0.8067 1.031,1.209 0.3453,0.4067 0.6907,0.8133 1.029,1.212 0.324,0.4107 0.6427,0.8147 0.9587,1.2 0.6427,0.7667 1.183,1.523 1.688,2.145 0.2387,0.3227 0.4547,0.6173 0.6507,0.876 0.2013,0.26 0.3653,0.4907 0.496,0.6827 0.2733,0.3813 0.4253,0.6053 0.4253,0.6053"
   id="path23421" />
        <path
   d="m 324,358.9 c 0,0 -0.24,-0.0613 -0.6747,-0.064 -0.2147,-0.005 -0.4787,0.012 -0.7813,0.04 -0.2973,0.04 -0.64,0.0787 -1,0.1867 -0.3653,0.0787 -0.744,0.2213 -1.145,0.372 -0.396,0.1613 -0.8107,0.348 -1.216,0.576 -0.4053,0.2307 -0.828,0.4653 -1.217,0.7627 -0.2,0.1427 -0.3987,0.284 -0.6,0.4293 l -0.5667,0.476 c -0.3867,0.3133 -0.7413,0.6573 -1.085,1 -0.1693,0.1747 -0.3387,0.3467 -0.5053,0.516 -0.1533,0.1787 -0.3093,0.356 -0.4573,0.532 -0.296,0.3533 -0.6,0.68 -0.8413,1.029 -0.244,0.3427 -0.4773,0.6653 -0.6907,0.964 -0.2213,0.292 -0.38,0.5933 -0.536,0.8467 -0.152,0.256 -0.2867,0.48 -0.3933,0.6613 -0.2107,0.3733 -0.3307,0.584 -0.3307,0.584 0,0 0.1613,-0.184 0.4427,-0.504 0.28,-0.3213 0.6533,-0.8 1.141,-1.337 0.2413,-0.2693 0.5027,-0.5653 0.78,-0.8733 0.2613,-0.3187 0.592,-0.6093 0.896,-0.9387 0.1573,-0.1613 0.3133,-0.328 0.476,-0.4947 0.1693,-0.1573 0.34,-0.316 0.516,-0.4747 0.3387,-0.3253 0.6853,-0.6533 1.061,-0.948 l 0.548,-0.456 c 0.1907,-0.14 0.3787,-0.2813 0.568,-0.42 0.3693,-0.288 0.7627,-0.5253 1.133,-0.772 0.3747,-0.2373 0.7547,-0.4373 1.115,-0.6307 0.3653,-0.1773 0.7147,-0.3467 1.047,-0.4733 0.328,-0.144 0.644,-0.2293 0.9187,-0.3253 0.2813,-0.08 0.532,-0.144 0.7373,-0.1773 0.4133,-0.076 0.6613,-0.0867 0.6613,-0.0867"
   id="path23423" />
        <path
   d="m 325.5,360.1 c 0,0 -0.2467,0.056 -0.6573,0.2173 -0.4227,0.148 -0.9973,0.408 -1.683,0.7467 -0.328,0.1907 -0.6853,0.3987 -1.061,0.6147 -0.3867,0.2093 -0.7587,0.476 -1.144,0.7547 -0.3893,0.2747 -0.788,0.564 -1.188,0.8627 -0.38,0.324 -0.7653,0.6533 -1.14,0.9893 -0.3733,0.3453 -0.772,0.6653 -1.117,1.021 -0.34,0.3667 -0.672,0.724 -0.9973,1.071 -0.3187,0.3507 -0.6253,0.692 -0.9173,1.016 -0.2813,0.328 -0.5107,0.6707 -0.7427,0.9707 -0.4507,0.6107 -0.8093,1.131 -1.064,1.489 -0.248,0.3613 -0.388,0.5707 -0.388,0.5707 0,0 0.1787,-0.176 0.4947,-0.4867 0.3067,-0.3173 0.752,-0.7587 1.268,-1.307 0.2547,-0.272 0.5333,-0.5667 0.828,-0.8787 0.312,-0.2947 0.64,-0.604 0.9787,-0.9253 0.336,-0.3267 0.6827,-0.6627 1.032,-1.004 0.3453,-0.3467 0.7387,-0.6507 1.112,-0.9827 0.372,-0.328 0.744,-0.6547 1.112,-0.9787 0.388,-0.2947 0.7667,-0.5933 1.128,-0.8867 0.3613,-0.292 0.716,-0.5747 1.067,-0.816 0.3427,-0.2507 0.672,-0.4893 0.972,-0.7107 0.3107,-0.2067 0.6,-0.3907 0.848,-0.568 0.248,-0.1773 0.476,-0.3133 0.664,-0.4253 0.3733,-0.2307 0.596,-0.3547 0.596,-0.3547"
   id="path23425" />
        <path
   d="m 316.9,375.1 c 0,0 0.2307,0.084 0.664,0.1253 0.216,0.024 0.4787,0.0307 0.7813,0.0293 0.3013,-0.0147 0.648,-0.028 1.012,-0.1027 0.3733,-0.048 0.764,-0.1547 1.175,-0.2707 0.4093,-0.1267 0.836,-0.2787 1.261,-0.468 0.424,-0.196 0.8653,-0.392 1.277,-0.6547 0.212,-0.124 0.4253,-0.2493 0.6387,-0.3747 l 0.604,-0.4267 c 0.412,-0.276 0.7947,-0.5893 1.167,-0.904 0.184,-0.156 0.3667,-0.312 0.5467,-0.468 0.172,-0.1667 0.3387,-0.3267 0.504,-0.4907 0.3253,-0.328 0.656,-0.6267 0.9267,-0.952 0.2733,-0.3213 0.5307,-0.6227 0.7707,-0.904 0.2467,-0.268 0.4307,-0.5547 0.6093,-0.796 0.172,-0.2413 0.3227,-0.452 0.448,-0.624 0.2413,-0.3533 0.38,-0.556 0.38,-0.556 0,0 -0.1747,0.1693 -0.4853,0.468 -0.3053,0.2973 -0.72,0.74 -1.253,1.232 -0.2627,0.2493 -0.5493,0.5173 -0.8533,0.8013 -0.2853,0.2987 -0.64,0.556 -0.972,0.86 -0.1707,0.148 -0.3413,0.2987 -0.5147,0.452 -0.1827,0.1413 -0.3693,0.2827 -0.556,0.4253 -0.368,0.2973 -0.74,0.5933 -1.141,0.8547 l -0.5867,0.4053 c -0.2,0.1253 -0.4,0.248 -0.6013,0.3707 -0.3933,0.2547 -0.804,0.456 -1.195,0.6707 -0.396,0.204 -0.792,0.3707 -1.164,0.5347 -0.3813,0.144 -0.7427,0.2813 -1.084,0.38 -0.34,0.112 -0.6627,0.172 -0.9453,0.244 -0.2867,0.056 -0.5387,0.096 -0.748,0.1133 -0.42,0.036 -0.6653,0.0253 -0.6653,0.0253"
   id="path23427" />
        <path
   d="m 315.5,373.8 c 0,0 0.2493,-0.0333 0.6747,-0.1613 0.432,-0.1093 1.028,-0.3213 1.74,-0.5973 0.3427,-0.1613 0.7173,-0.3373 1.111,-0.5227 0.4013,-0.1747 0.7973,-0.404 1.207,-0.6507 0.4107,-0.2387 0.832,-0.492 1.255,-0.7573 0.408,-0.288 0.82,-0.584 1.224,-0.888 0.4027,-0.3107 0.824,-0.5947 1.201,-0.9227 0.368,-0.3333 0.7307,-0.6613 1.085,-0.9787 0.3493,-0.3227 0.684,-0.636 1.003,-0.9293 0.3067,-0.3053 0.568,-0.628 0.8227,-0.9067 0.5013,-0.568 0.9013,-1.056 1.191,-1.388 0.276,-0.344 0.4347,-0.5373 0.4347,-0.5373 0,0 -0.1947,0.16 -0.536,0.4427 -0.3307,0.2893 -0.816,0.6907 -1.376,1.189 -0.2787,0.2507 -0.58,0.52 -0.9,0.8067 -0.336,0.264 -0.6907,0.5467 -1.055,0.8387 -0.3627,0.2933 -0.7373,0.5987 -1.115,0.9093 -0.3773,0.312 -0.7947,0.584 -1.193,0.8813 -0.3987,0.2947 -0.8,0.5893 -1.193,0.88 -0.4133,0.2613 -0.8147,0.5227 -1.2,0.784 -0.3867,0.2613 -0.76,0.5107 -1.131,0.7213 -0.368,0.224 -0.7147,0.4333 -1.033,0.6253 -0.328,0.18 -0.6293,0.336 -0.8947,0.492 -0.2627,0.156 -0.5013,0.2707 -0.696,0.3653 -0.3933,0.2 -0.6253,0.304 -0.6253,0.304"
   id="path23429" />
        <path
   d="m 327.7,361.9 c 0,0 -0.2547,0.088 -0.6787,0.2933 -0.432,0.1973 -1.029,0.508 -1.732,0.9093 -0.344,0.216 -0.7147,0.4467 -1.107,0.692 -0.3973,0.24 -0.7893,0.532 -1.199,0.828 -0.4093,0.2947 -0.832,0.6067 -1.251,0.9307 -0.4067,0.34 -0.8187,0.688 -1.231,1.033 -0.404,0.3587 -0.828,0.692 -1.208,1.06 -0.38,0.372 -0.7507,0.736 -1.112,1.089 -0.3573,0.356 -0.7,0.7013 -1.027,1.031 -0.3173,0.3333 -0.5933,0.6733 -0.864,0.9733 -0.5293,0.612 -0.9507,1.135 -1.256,1.492 -0.292,0.368 -0.4613,0.576 -0.4613,0.576 0,0 0.2067,-0.1747 0.564,-0.4827 0.348,-0.3147 0.856,-0.7547 1.444,-1.297 0.2947,-0.272 0.6107,-0.5667 0.948,-0.8787 0.3467,-0.3027 0.712,-0.62 1.089,-0.948 0.3733,-0.332 0.7573,-0.6747 1.148,-1.025 0.3853,-0.3573 0.8067,-0.6813 1.213,-1.027 0.4053,-0.344 0.808,-0.6907 1.208,-1.029 0.4133,-0.3227 0.8187,-0.64 1.201,-0.9587 0.7653,-0.64 1.52,-1.183 2.145,-1.687 0.3227,-0.24 0.616,-0.4573 0.876,-0.6507 0.26,-0.2053 0.4893,-0.368 0.684,-0.4987 0.38,-0.2733 0.604,-0.4253 0.604,-0.4253"
   id="path23431" />
      </g></g><pattern
       patternUnits="userSpaceOnUse"
       width="135.23165"
       height="142.99061"
       patternTransform="translate(15.322236,30.9005)"
       id="pattern5728"><g
         id="g5726"
         transform="matrix(3.7795276,0,0,3.7795276,-15.322236,-30.9005)"><use
           x="5"
           y="5"
           xlink:href="#flower3"
           transform="matrix(0.43531641,0.29887336,-0.29887336,0.43531641,27.407352,-28.019569)"
           id="use5714" /><use
           x="5"
           y="5"
           xlink:href="#flower3"
           transform="matrix(0.51029168,-0.02862396,0.02862396,0.51029168,-2.5512408,-5.5724902)"
           id="use4690" /><use
           x="5"
           y="5"
           xlink:href="#flower3"
           transform="matrix(-0.53922434,0.19317084,-0.19317084,-0.53922434,59.358456,65.724108)"
           id="use4692" /><use
           x="5"
           y="5"
           xlink:href="#daisy"
           id="use5698"
           transform="matrix(0.49344249,0,0,0.49344249,-7.7509363,2.7669888)" /><use
           x="5"
           y="5"
           xlink:href="#leaf"
           id="use5700"
           transform="matrix(-0.43149767,-0.29183138,0.29183138,-0.43149767,27.667677,115.42501)" /><use
           x="5"
           y="5"
           xlink:href="#leaf"
           id="use5702"
           transform="matrix(0.52070154,-0.01502345,0.01502345,0.52070154,-14.06275,-36.27204)" /><use
           x="5"
           y="5"
           xlink:href="#daisy"
           id="use5704"
           transform="matrix(0.49344249,0,0,0.49344249,-11.212077,-22.115804)" /><use
           x="5"
           y="5"
           xlink:href="#leaf"
           id="use5706"
           transform="matrix(-0.03160991,0.51995827,-0.51995827,-0.03160991,88.080211,-9.4674184)" /><use
           x="5"
           y="5"
           xlink:href="#leaf"
           id="use5708"
           transform="matrix(0.25678588,-0.59658046,0.59658046,0.25678588,-61.833321,64.622683)" /><use
           x="5"
           y="5"
           xlink:href="#daisy"
           id="use5710"
           transform="matrix(0.40164657,0,0,0.40164657,3.598846,-14.307599)" /><use
           x="5"
           y="5"
           xlink:href="#leaf"
           id="use5712"
           transform="matrix(-0.18732679,-0.44642841,0.44642841,-0.18732679,-16.875514,87.85872)" /></g></pattern><clipPath
       clipPathUnits="userSpaceOnUse"
       id="clipPath2921"><path
         id="path2923"
         style="font-style:normal;font-weight:normal;font-size:33.5139px;line-height:1.25;font-family:sans-serif;display:inline;fill:#ff0000;fill-opacity:0.671329;stroke:none;stroke-width:0.264583"
         inkscape:label="S"
         d="M 40.415104,55.871409 V 89.804221 H 63.698437 V 55.871409 Z m 6.18567,2.605008 c 0.654566,0 1.178224,0.185634 1.570963,0.556556 0.403649,0.360011 0.605647,0.839687 0.605647,1.439704 0,0.349104 -0.07108,0.698381 -0.212907,1.047483 -0.141822,0.349102 -0.299839,0.660024 -0.47439,0.932759 -0.163642,0.250918 -0.349274,0.545476 -0.556554,0.883666 -0.20728,0.338196 -0.354557,0.643488 -0.441833,0.916223 0.229098,0.360013 0.583483,0.676561 1.063501,0.949296 0.490924,0.272738 1.145495,0.409279 1.963703,0.409279 0.3474,0 0.665181,-0.0364 0.956532,-0.104902 v 1.30121 c -0.236588,0.01958 -0.478136,0.03101 -0.727088,0.03101 -1.778241,0 -3.223922,-0.496557 -4.336688,-1.489316 -1.101852,-1.003668 -1.652611,-2.351167 -1.652611,-4.042129 0,-0.741845 0.190744,-1.396413 0.572574,-1.963706 0.381831,-0.578199 0.938215,-0.86713 1.669151,-0.86713 z M 52.19733,80.94068 c 1.069126,0 2.02388,0.163642 2.863909,0.490926 0.850937,0.327282 1.625166,0.708771 2.323372,1.145148 l 0.671277,-1.112591 h 1.308965 l 0.130739,7.70754 h -1.325499 c -0.240009,-0.883666 -0.512575,-1.728981 -0.818039,-2.53628 -0.294553,-0.807299 -0.68167,-1.538581 -1.161685,-2.193147 -0.469106,-0.632751 -1.041855,-1.134414 -1.718241,-1.505336 -0.670219,-0.378349 -1.491213,-0.568608 -2.46135,-0.572059 v -1.420585 c 0.0621,-0.0016 0.124111,-0.0036 0.186552,-0.0036 z"
         sodipodi:nodetypes="cccccscsscsccsccscscssscccccccccccss" /></clipPath><clipPath
       clipPathUnits="userSpaceOnUse"
       id="clipPath1261"><path
         id="path1263"
         style="color:#000000;display:inline;fill:#000000;fill-opacity:0.507277;stroke-width:1;stroke-linecap:square;-inkscape-stroke:none"
         d="m 26.42526,100.7843 c -6.075013,9e-5 -10.999762,4.92484 -10.999845,10.99985 8.8e-5,6.07501 4.924836,10.99975 10.999845,10.99984 6.075011,-9e-5 10.999759,-4.92483 10.999846,-10.99984 -2.64e-4,-2.72894 -1.014949,-5.36034 -2.846856,-7.38301 -1.652704,0.57024 -3.069016,1.67401 -4.025593,3.13986 l -0.05839,0.0899 -0.09767,-0.045 c -0.660355,-0.29739 -1.196708,-0.81377 -1.517737,-1.46296 l -0.03307,-0.0667 0.04289,-0.062 c 0.982298,-1.38783 2.295359,-2.50009 3.813205,-3.24269 -1.842577,-1.28061 -4.032727,-1.96709 -6.27662,-1.96733 z m 6.276621,1.96733 1.876369,1.64951 z"
         sodipodi:nodetypes="cccccccccccccccc" /></clipPath></defs><g
     inkscape:groupmode="layer"
     id="layer1"
     inkscape:label="Background"
     sodipodi:insensitive="true"
     style="display:inline"><rect
       id="rect24229"
       width="100%"
       height="100%"
       x="0"
       y="0"
       style="display:inline;fill:#ecc165;fill-opacity:1" /><g
       id="g3018"
       inkscape:label="Border and background"
       sodipodi:insensitive="true"
       style="display:inline"><rect
         width="100%"
         height="100%"
         x="0"
         y="0"
         id="rect5742"
         style="display:inline;fill:url(#pattern5746);stroke:none" /><rect
         style="display:inline;fill:#faddaf;fill-opacity:1;stroke:#4c7031;stroke-width:1;stroke-linecap:round;stroke-linejoin:round;stroke-dasharray:none;stroke-opacity:1"
         id="rect5875"
         width="85"
         height="128"
         x="10"
         y="10" /></g></g><g
     inkscape:groupmode="layer"
     id="layer4"
     inkscape:label="Back of card"
     style="display:inline"
     transform="translate(0,11.544757)"><g
       id="g1402"
       transform="matrix(0.74072866,0,0,0.74072866,28.90161,43.607996)"
       style="display:inline"><path
         id="path10313"
         style="display:inline;fill:#f2ae1c;fill-opacity:1;stroke:#000000;stroke-width:0.25;stroke-linecap:square;stroke-dasharray:none;stroke-opacity:1"
         d="m 37.149755,101.84004 a 10,10 0 0 0 -9.999906,10.00042 10,10 0 0 0 9.999906,9.99991 10,10 0 0 0 10.000423,-9.99991 10,10 0 0 0 -10.000423,-10.00042 z m 0,2.00039 a 8,8 0 0 1 8.000029,8.00003 8,8 0 0 1 -8.000029,7.99951 8,8 0 0 1 -8.000028,-7.99951 8,8 0 0 1 8.000028,-8.00003 z" /><path
         id="path1926"
         style="display:inline;fill:#f2ae1c;fill-opacity:1;stroke:#000000;stroke-width:0.25;stroke-linecap:square;stroke-dasharray:none;stroke-opacity:1"
         d="m 26.566421,101.84004 a 10,10 0 0 0 -9.999906,10.00042 10,10 0 0 0 9.999906,9.99991 10,10 0 0 0 10.000423,-9.99991 10,10 0 0 0 -10.000423,-10.00042 z m 0,2.00039 a 8,8 0 0 1 8.000029,8.00003 8,8 0 0 1 -8.000029,7.99951 8,8 0 0 1 -8.000028,-7.99951 8,8 0 0 1 8.000028,-8.00003 z"
         clip-path="url(#clipPath1261)" /></g><text
       xml:space="preserve"
       style="font-size:3.43958px;line-height:1.25;font-family:Georgia;-inkscape-font-specification:Georgia;text-align:center;text-anchor:middle;display:inline;stroke-width:0.264583"
       x="22.777361"
       y="93.169754"
       id="text2541"><tspan
         sodipodi:role="line"
         style="text-align:start;text-anchor:start;stroke-width:0.264583"
         x="22.777361"
         y="93.169754"
         id="tspan2575">Celebrating with you</tspan><tspan
         sodipodi:role="line"
         style="text-align:start;text-anchor:start;stroke-width:0.264583"
         x="22.777361"
         y="97.469231"
         id="tspan2588">    is more precious words can say.</tspan><tspan
         sodipodi:role="line"
         style="text-align:start;text-anchor:start;stroke-width:0.264583"
         x="22.777361"
         y="101.76871"
         id="tspan3003">Though if you wish to give</tspan><tspan
         sodipodi:role="line"
         style="text-align:start;text-anchor:start;stroke-width:0.264583"
         x="22.777361"
         y="106.06818"
         id="tspan3780">    in some other way, </tspan><tspan
         sodipodi:role="line"
         style="text-align:start;text-anchor:start;stroke-width:0.264583"
         x="22.777361"
         y="110.36765"
         id="tspan2559">a contribution towards our honeymoon</tspan><tspan
         sodipodi:role="line"
         style="text-align:start;text-anchor:start;stroke-width:0.264583"
         x="22.777361"
         y="114.66713"
         id="tspan2590">    would really make our day. </tspan></text><path
       style="display:inline;fill:none;stroke:#4c7031;stroke-width:1;stroke-linecap:round;stroke-linejoin:round;stroke-dasharray:none;stroke-opacity:1"
       d="m 23.850754,85.745904 57.298492,3.89e-4"
       id="path1643"
       sodipodi:nodetypes="cc" /><g
       id="g3752"
       transform="translate(2.9138755e-7,3.9971536)"><text
         xml:space="preserve"
         style="font-size:4.23333px;line-height:1.25;font-family:sans-serif;text-align:center;text-anchor:middle;display:inline;stroke-width:0.264583"
         x="52.366673"
         y="76.007355"
         id="text1610"><tspan
           sodipodi:role="line"
           style="font-style:normal;font-variant:normal;font-weight:normal;font-stretch:normal;font-size:4.23333px;font-family:Georgia;-inkscape-font-specification:Georgia;stroke-width:0.264583"
           x="52.366673"
           y="76.007355"
           id="tspan1614">Reception to follow</tspan></text><text
         xml:space="preserve"
         style="font-size:4.23333px;line-height:1.25;font-family:sans-serif;text-align:center;text-anchor:middle;display:inline;stroke-width:0.264583"
         x="52.398712"
         y="61.431942"
         id="text790-0"><tspan
           sodipodi:role="line"
           style="font-style:normal;font-variant:normal;font-weight:normal;font-stretch:normal;font-size:4.23333px;font-family:Georgia;-inkscape-font-specification:Georgia;stroke-width:0.264583"
           x="52.398712"
           y="61.431942"
           id="tspan1025">55 Tulbagh</tspan><tspan
           sodipodi:role="line"
           style="font-style:normal;font-variant:normal;font-weight:normal;font-stretch:normal;font-size:4.23333px;font-family:Georgia;-inkscape-font-specification:Georgia;stroke-width:0.264583"
           x="52.398712"
           y="66.766403"
           id="tspan1027">Glen marais, Kempton Park</tspan></text><text
         xml:space="preserve"
         style="font-size:6.61458px;line-height:1.25;font-family:sans-serif;text-align:center;text-anchor:middle;stroke-width:0.264583"
         x="52.529068"
         y="44.698215"
         id="text790"><tspan
           sodipodi:role="line"
           style="font-style:normal;font-variant:normal;font-weight:normal;font-stretch:normal;font-size:6.61458px;font-family:Georgia;-inkscape-font-specification:Georgia;baseline-shift:baseline;stroke-width:0.264583"
           x="52.529064"
           y="44.698215"
           id="tspan788">Friday, the 5<tspan
   style="font-size:65%;baseline-shift:super"
   id="tspan1023">th</tspan> of May 2023</tspan><tspan
           sodipodi:role="line"
           style="font-style:normal;font-variant:normal;font-weight:normal;font-stretch:normal;font-size:5.29167px;font-family:Georgia;-inkscape-font-specification:Georgia;baseline-shift:baseline;stroke-width:0.264583"
           x="52.529068"
           y="53.033314"
           id="tspan2403">at half past three in the afternoon</tspan></text></g><path
       style="display:inline;fill:none;stroke:#4c7031;stroke-width:1;stroke-linecap:round;stroke-linejoin:round;stroke-dasharray:none;stroke-opacity:1"
       d="m 23.850754,37.975725 57.298492,3.89e-4"
       id="path3726"
       sodipodi:nodetypes="cc" /><g
       id="g3741"
       transform="translate(1.3671815e-6,-0.52916663)"><text
         xml:space="preserve"
         style="font-size:4.23333px;line-height:1.25;font-family:sans-serif;text-align:center;text-anchor:middle;display:inline;stroke-width:0.264583"
         x="52.480362"
         y="27.429035"
         id="text753"><tspan
           sodipodi:role="line"
           id="tspan751"
           style="font-style:normal;font-variant:normal;font-weight:normal;font-stretch:normal;font-size:4.23333px;font-family:Georgia;-inkscape-font-specification:Georgia;stroke-width:0.264583"
           x="52.480362"
           y="27.429035">request the honour of your presence</tspan><tspan
           sodipodi:role="line"
           style="font-style:normal;font-variant:normal;font-weight:normal;font-stretch:normal;font-size:4.23333px;font-family:Georgia;-inkscape-font-specification:Georgia;stroke-width:0.264583"
           x="52.480362"
           y="32.763496"
           id="tspan778">at their wedding on</tspan></text><g
         id="g1560"
         transform="translate(-10.626222,-11.055901)"><text
           xml:space="preserve"
           style="font-size:8.20208px;line-height:1.25;font-family:sans-serif;text-align:center;text-anchor:middle;stroke-width:0.264583"
           x="76.381325"
           y="30.041609"
           id="text389-6"><tspan
             sodipodi:role="line"
             id="tspan387-0"
             style="font-style:normal;font-variant:normal;font-weight:normal;font-stretch:normal;font-size:8.20208px;font-family:Georgia;-inkscape-font-specification:Georgia;stroke-width:0.264583"
             x="76.381325"
             y="30.041609"><tspan
               id="tspan449-6"
               style="font-size:8.20208px">Simone</tspan></tspan></text><text
           xml:space="preserve"
           style="font-style:normal;font-variant:normal;font-weight:normal;font-stretch:normal;font-size:4.23333px;line-height:1.25;font-family:Niconne;-inkscape-font-specification:Niconne;text-align:center;text-anchor:middle;stroke-width:0.264583"
           x="57.663509"
           y="28.424978"
           id="text389-3"><tspan
             sodipodi:role="line"
             id="tspan387-6"
             style="font-style:normal;font-variant:normal;font-weight:normal;font-stretch:normal;font-size:4.23333px;font-family:Niconne;-inkscape-font-specification:Niconne;stroke-width:0.264583"
             x="57.663509"
             y="28.424978">and</tspan></text><text
           xml:space="preserve"
           style="font-size:8.20208px;line-height:1.25;font-family:sans-serif;text-align:center;text-anchor:middle;stroke-width:0.264583"
           x="44.564598"
           y="29.841364"
           id="text575"><tspan
             sodipodi:role="line"
             id="tspan573"
             style="font-style:normal;font-variant:normal;font-weight:normal;font-stretch:normal;font-size:8.20208px;font-family:Georgia;-inkscape-font-specification:Georgia;stroke-width:0.264583"
             x="44.564598"
             y="29.841364">Jens</tspan></text></g><text
         xml:space="preserve"
         style="font-size:4.23333px;line-height:1.25;font-family:sans-serif;text-align:center;text-anchor:middle;display:inline;stroke-width:0.264583"
         x="52.564079"
         y="6.8791671"
         id="text588"><tspan
           sodipodi:role="line"
           id="tspan586"
           style="font-style:normal;font-variant:normal;font-weight:normal;font-stretch:normal;font-size:4.23333px;font-family:Georgia;-inkscape-font-specification:Georgia;stroke-width:0.264583"
           x="52.564079"
           y="6.8791671">With great pleasure</tspan></text></g></g></svg>
