<?xml version="1.0" encoding="UTF-8" standalone="no"?>
<svg
   height="1024"
   version="1.1"
   width="1024"
   xml:space="preserve"
   id="svg41"
   sodipodi:docname="daisy.svg"
   inkscape:version="1.2.1 (9c6d41e410, 2022-07-14)"
   inkscape:export-filename="daisy.png"
   inkscape:export-xdpi="8192"
   inkscape:export-ydpi="8192"
   xmlns:inkscape="http://www.inkscape.org/namespaces/inkscape"
   xmlns:sodipodi="http://sodipodi.sourceforge.net/DTD/sodipodi-0.dtd"
   xmlns="http://www.w3.org/2000/svg"
   xmlns:svg="http://www.w3.org/2000/svg"><defs
   id="defs45" /><sodipodi:namedview
   id="namedview43"
   pagecolor="#505050"
   bordercolor="#eeeeee"
   borderopacity="1"
   inkscape:showpageshadow="0"
   inkscape:pageopacity="0"
   inkscape:pagecheckerboard="0"
   inkscape:deskcolor="#505050"
   showgrid="false"
   inkscape:zoom="0.79492188"
   inkscape:cx="511.37101"
   inkscape:cy="512"
   inkscape:window-width="1920"
   inkscape:window-height="1017"
   inkscape:window-x="-8"
   inkscape:window-y="-8"
   inkscape:window-maximized="1"
   inkscape:current-layer="svg41" />
  
<g
   id="g274"
   transform="scale(85.333333)"><rect
     style="fill:#212529;fill-opacity:1;stroke:none;stroke-width:0.566929;stroke-linecap:round;stroke-linejoin:round"
     id="rect403"
     width="12"
     height="12"
     x="0"
     y="0"
     rx="2"
     ry="2" /><g
     id="daisy"
     transform="matrix(-1.0199794,0.09385453,-0.09385453,-1.0199794,78.25145,74.892924)">
    <g
   fill="#ffffff"
   id="g14">
      <path
   d="m 66.52,72.34 c -0.86,0.02 -1.49,0.76 -1.47,1.29 0.01,0.53 0.75,1.09 1.59,1.25 1.51,0.29 2.16,-0.76 2.06,-1.28 -0.25,-1.27 -1.32,-1.28 -2.18,-1.26"
   id="path2" />
      <path
   d="m 66.98,71.56 c 0.57,-0.64 0.46,-1.6 0.06,-1.95 -0.4,-0.36 -1.36,-0.73 -1.93,0.05 -0.92,1.24 -0.99,2.36 -0.53,2.64 1.09,0.68 1.83,-0.1 2.4,-0.74"
   id="path4" />
      <path
   d="m 62.02,71.6 c 0.52,0.68 1.48,0.77 1.9,0.44 0.43,-0.32 0.46,-1.24 0.1,-2.02 -0.65,-1.4 -1.88,-1.31 -2.25,-0.92 -0.88,0.93 -0.27,1.82 0.25,2.5"
   id="path6" />
      <path
   d="m 61.1,71.68 c -0.85,-0.09 -1.57,0.56 -1.62,1.1 -0.05,0.52 0.6,1.17 1.42,1.43 1.46,0.48 2.24,-0.48 2.2,-1 -0.08,-1.3 -1.15,-1.45 -2,-1.53"
   id="path8" />
      <path
   d="m 63.74,76.1 c 0.44,-0.74 0.15,-1.66 -0.3,-1.93 -0.47,-0.27 -1.33,0.05 -1.91,0.68 -1.05,1.13 -0.51,2.23 -0.01,2.43 1.2,0.46 1.78,-0.44 2.22,-1.18"
   id="path10" />
      <path
   d="m 64.16,76.92 c 0.25,0.82 1.1,1.18 1.63,1.09 1.18,-0.21 1.22,-0.85 1.16,-1.71 -0.11,-1.54 -1.66,-2.04 -2.14,-1.8 -1.15,0.56 -0.9,1.6 -0.65,2.42"
   id="path12" />
    </g>
    <g
   fill="#ecc165"
   id="g36">
      <path
   d="m 65.8,74.04 0.01,-0.13 v -0.16 l -0.04,-0.2 a 1.7,1.7 0 0 0 -0.2,-0.47 1.98,1.98 0 0 0 -0.14,-0.25 l -0.09,-0.12 -0.1,-0.11 -0.2,-0.22 -0.1,-0.1 -0.1,-0.09 -0.21,-0.17 -0.2,-0.14 -0.16,-0.1 -0.14,-0.08 -0.11,-0.07 0.1,0.09 0.27,0.23 0.17,0.15 0.19,0.18 0.1,0.1 0.1,0.1 0.18,0.21 0.1,0.11 0.08,0.12 0.15,0.22 0.13,0.23 0.1,0.2 0.06,0.19 a 1.57,1.57 0 0 1 0.05,0.28"
   id="path16" />
      <path
   d="m 65.58,74.34 -0.04,-0.13 a 2.9,2.9 0 0 0 -0.15,-0.34 l -0.13,-0.21 a 1.5,1.5 0 0 0 -0.15,-0.23 8.9,8.9 0 0 0 -0.17,-0.24 7.08,7.08 0 0 0 -0.2,-0.23 l -0.2,-0.22 -0.22,-0.2 -0.2,-0.18 c -0.06,-0.06 -0.13,-0.1 -0.2,-0.15 L 63.63,72 l -0.11,-0.08 0.1,0.1 0.25,0.25 0.18,0.17 0.18,0.2 0.2,0.2 0.2,0.22 0.2,0.22 0.17,0.23 0.17,0.21 0.14,0.2 0.11,0.17 0.09,0.13 0.07,0.12"
   id="path18" />
      <path
   d="m 62.58,72.62 -0.03,0.13 a 1.42,1.42 0 0 0 0,0.16 c 0,0.06 0,0.13 0.02,0.2 a 2.16,2.16 0 0 0 0.15,0.49 l 0.13,0.26 0.07,0.12 0.09,0.12 c 0.05,0.09 0.12,0.16 0.18,0.24 l 0.1,0.1 0.1,0.1 0.18,0.2 0.18,0.15 0.16,0.12 0.13,0.09 0.1,0.07 -0.09,-0.1 -0.24,-0.24 -0.16,-0.17 -0.17,-0.2 -0.1,-0.1 -0.08,-0.11 A 2.43,2.43 0 0 1 63.13,74.02 L 63.05,73.9 62.97,73.78 62.84,73.54 62.74,73.31 A 1.19,1.19 0 0 1 62.66,73.09 0.77,0.77 0 0 1 62.61,72.9 0.98,0.98 0 0 1 62.59,72.75 l -0.01,-0.13"
   id="path20" />
      <path
   d="m 62.84,72.34 0.03,0.14 0.12,0.34 0.1,0.22 0.14,0.25 0.15,0.25 0.18,0.24 c 0.06,0.08 0.11,0.17 0.18,0.24 l 0.2,0.22 0.18,0.2 0.18,0.16 0.28,0.24 0.1,0.09 -0.08,-0.1 -0.24,-0.28 -0.16,-0.18 -0.17,-0.21 -0.18,-0.23 -0.18,-0.24 -0.17,-0.23 -0.16,-0.24 -0.14,-0.23 -0.13,-0.2 -0.1,-0.19 a 2.64,2.64 0 0 1 -0.13,-0.26"
   id="path22" />
      <path
   d="m 65.22,74.76 -0.06,-0.14 -0.18,-0.34 -0.14,-0.22 a 8.37,8.37 0 0 0 -0.35,-0.5 l -0.2,-0.24 -0.22,-0.24 -0.22,-0.22 -0.2,-0.21 -0.2,-0.17 c -0.12,-0.1 -0.22,-0.2 -0.3,-0.25 l -0.11,-0.1 0.1,0.12 0.26,0.29 0.17,0.19 0.19,0.21 0.2,0.23 0.21,0.24 0.2,0.25 0.2,0.24 0.34,0.43 0.13,0.17 0.1,0.14 0.08,0.12"
   id="path24" />
      <path
   d="m 64.8,71.78 -0.13,-0.01 h -0.16 l -0.2,0.04 a 2.15,2.15 0 0 0 -0.47,0.2 l -0.25,0.14 -0.12,0.09 -0.11,0.1 -0.22,0.2 -0.1,0.1 -0.09,0.1 -0.17,0.21 -0.14,0.2 -0.1,0.16 -0.08,0.14 -0.07,0.11 0.09,-0.1 0.23,-0.27 0.15,-0.17 0.18,-0.19 0.1,-0.1 0.1,-0.1 0.21,-0.18 0.11,-0.1 0.12,-0.08 c 0.07,-0.06 0.15,-0.1 0.22,-0.15 l 0.23,-0.13 0.2,-0.1 0.19,-0.06 0.15,-0.03 0.13,-0.02"
   id="path26" />
      <path
   d="m 65.1,72.02 -0.13,0.04 a 3.2,3.2 0 0 0 -0.34,0.15 l -0.21,0.13 a 1.5,1.5 0 0 0 -0.23,0.15 l -0.24,0.17 -0.22,0.2 -0.23,0.2 -0.2,0.22 -0.18,0.2 c -0.06,0.06 -0.1,0.13 -0.15,0.2 -0.09,0.11 -0.16,0.22 -0.21,0.3 l -0.08,0.1 0.1,-0.1 0.25,-0.25 0.17,-0.18 0.2,-0.18 0.2,-0.2 0.22,-0.2 0.23,-0.2 0.22,-0.18 0.21,-0.16 0.2,-0.14 0.17,-0.11 0.13,-0.09 0.12,-0.07"
   id="path28" />
      <path
   d="m 63.38,75.02 0.13,0.03 h 0.16 c 0.06,0 0.13,0 0.2,-0.02 a 2.27,2.27 0 0 0 0.49,-0.15 l 0.25,-0.13 0.13,-0.07 0.12,-0.09 a 2.65,2.65 0 0 0 0.35,-0.27 l 0.1,-0.1 0.18,-0.2 0.16,-0.17 0.12,-0.16 0.09,-0.13 0.07,-0.1 -0.1,0.09 -0.24,0.24 -0.18,0.16 c -0.05,0.06 -0.12,0.11 -0.19,0.17 l -0.1,0.1 -0.11,0.08 -0.23,0.17 -0.12,0.08 -0.12,0.08 -0.24,0.13 -0.23,0.1 c -0.08,0.04 -0.15,0.06 -0.22,0.08 l -0.19,0.05 a 0.95,0.95 0 0 1 -0.15,0.02 l -0.13,0.01"
   id="path30" />
      <path
   d="m 63.1,74.76 0.13,-0.03 a 3.06,3.06 0 0 0 0.35,-0.12 l 0.23,-0.1 a 8.72,8.72 0 0 0 0.49,-0.29 l 0.24,-0.18 0.24,-0.18 0.22,-0.2 0.2,-0.18 0.16,-0.18 0.24,-0.28 0.09,-0.1 -0.1,0.08 -0.28,0.24 -0.18,0.16 a 28.1,28.1 0 0 0 -0.44,0.35 l -0.24,0.18 -0.23,0.17 -0.24,0.16 -0.23,0.14 -0.2,0.13 -0.19,0.1 -0.14,0.07 a 2.4,2.4 0 0 1 -0.12,0.06"
   id="path32" />
      <path
   d="m 65.54,72.38 -0.14,0.06 -0.34,0.18 -0.22,0.14 -0.24,0.16 -0.25,0.19 -0.25,0.2 -0.24,0.22 -0.22,0.22 -0.21,0.2 -0.17,0.2 c -0.1,0.12 -0.2,0.22 -0.25,0.3 l -0.1,0.11 0.12,-0.1 0.29,-0.26 0.19,-0.17 0.21,-0.19 0.23,-0.2 0.24,-0.21 0.25,-0.2 0.24,-0.2 0.43,-0.34 0.17,-0.13 0.14,-0.1 0.12,-0.08"
   id="path34" />
    </g>
    <path
   d="m 64.46,71.32 a 2.1213203,2.1213203 0 1 0 -0.6,4.2 2.1213203,2.1213203 0 0 0 0.6,-4.2"
   fill="#f2ae1c"
   id="path38" />
    </g></g></svg>
